<?xml version="1.0" standalone="no"?>
<!DOCTYPE svg PUBLIC "-//W3C//DTD SVG 20010904//EN"
 "http://www.w3.org/TR/2001/REC-SVG-20010904/DTD/svg10.dtd">
<svg version="1.0" xmlns="http://www.w3.org/2000/svg"
 width="1188.000000pt" height="1188.000000pt" viewBox="0 0 1188.000000 1188.000000"
 preserveAspectRatio="xMidYMid meet">
<metadata>
Created by potrace 1.13, written by Peter Selinger 2001-2015
</metadata>
<g transform="translate(0.000000,1188.000000) scale(0.080000,-0.080000)"
fill="#000000" stroke="none">
<path d="M5446 14420 c-201 -30 -417 -90 -531 -147 -98 -50 -282 -182 -362
-259 -173 -169 -266 -329 -314 -543 -28 -124 -2 -380 50 -493 11 -26 21 -49
21 -52 0 -4 -53 -6 -117 -6 -64 0 -153 -4 -197 -10 -45 -5 -124 -14 -178 -20
-64 -6 -127 -21 -190 -44 -130 -48 -165 -67 -316 -169 -222 -151 -362 -315
-501 -586 -83 -164 -84 -164 -77 -224 3 -32 22 -107 42 -166 66 -199 176 -374
334 -531 98 -99 154 -142 244 -187 28 -14 53 -27 55 -29 8 -7 -34 -47 -64 -61
-16 -8 -43 -22 -60 -31 -24 -13 -55 -17 -150 -16 -151 1 -227 24 -437 131
-129 66 -156 84 -211 142 -35 37 -78 91 -97 119 -24 38 -40 52 -57 52 -13 0
-23 -4 -23 -9 0 -26 34 -167 61 -256 51 -166 87 -231 176 -316 43 -41 101 -90
128 -108 28 -19 61 -44 75 -57 14 -12 73 -46 133 -74 59 -28 107 -57 107 -63
-1 -14 -56 -77 -68 -77 -4 0 -23 -26 -42 -57 -19 -32 -45 -74 -58 -93 -28 -41
-104 -200 -140 -290 -14 -36 -31 -74 -38 -85 -19 -30 -40 -133 -60 -298 -16
-128 -16 -161 -6 -257 16 -143 46 -293 81 -400 31 -96 147 -310 136 -250 -4
19 -13 69 -20 110 -19 101 -19 288 0 369 9 36 29 85 45 110 17 24 30 49 30 54
0 13 51 80 56 74 2 -2 -6 -28 -20 -58 -36 -82 -50 -162 -50 -294 -1 -186 54
-410 126 -511 44 -60 59 -66 33 -11 -40 85 -56 220 -35 302 6 23 8 14 9 -39 2
-103 56 -260 121 -346 44 -59 145 -160 161 -160 5 0 -10 39 -35 88 -82 159
-91 197 -91 367 0 142 13 225 34 225 5 0 11 -66 14 -147 5 -146 6 -150 51
-265 58 -150 54 -143 151 -273 97 -129 163 -205 177 -205 7 0 7 4 1 13 -36 45
-80 357 -69 487 9 100 33 239 50 288 8 22 12 43 9 46 -4 3 -1 6 6 6 8 0 11 7
6 18 -5 13 -4 14 6 5 10 -10 9 -24 -5 -69 -20 -65 -23 -280 -5 -374 24 -127
43 -198 64 -250 25 -62 133 -228 202 -309 l46 -55 -26 -22 c-52 -45 -133 -67
-263 -72 -123 -4 -203 9 -317 53 l-37 15 20 -39 c34 -68 85 -97 230 -130 107
-25 212 -33 286 -21 32 5 60 7 63 4 3 -3 -7 -15 -22 -26 -76 -55 -187 -273
-263 -513 -28 -87 -29 -97 -27 -275 2 -177 3 -189 31 -270 52 -148 81 -203 67
-126 -10 53 24 351 51 443 13 46 24 85 24 88 0 3 4 5 10 5 6 0 8 -63 4 -177
-5 -174 -1 -246 30 -503 26 -218 38 -425 46 -805 9 -397 12 -428 68 -544 35
-76 89 -125 220 -203 116 -68 111 -67 332 -113 36 -8 117 -21 180 -30 63 -9
133 -21 155 -27 83 -21 255 -38 389 -38 165 0 360 -29 420 -63 22 -12 55 -44
75 -72 32 -46 35 -57 39 -138 2 -49 -1 -124 -8 -168 -14 -86 -1 -217 26 -271
17 -33 17 -38 3 -38 -6 0 -22 -9 -36 -20 -14 -11 -36 -20 -50 -20 -13 0 -49
-13 -81 -29 -31 -16 -98 -45 -147 -64 -127 -49 -455 -201 -550 -255 -118 -67
-250 -169 -335 -259 l-75 -80 -75 -12 c-374 -61 -759 -201 -1054 -383 -131
-82 -195 -133 -347 -281 -69 -67 -155 -148 -192 -180 -37 -32 -81 -78 -98
-101 -30 -42 -32 -43 -64 -33 -24 7 -55 7 -105 -2 -39 -6 -76 -9 -81 -5 -5 3
-20 -1 -33 -9 -75 -49 -389 -116 -781 -167 -88 -11 -166 -23 -174 -26 -8 -2
-66 -5 -130 -5 -125 -1 -154 -9 -167 -51 -3 -13 -20 -41 -36 -64 -31 -43 -51
-78 -95 -164 -16 -30 -53 -93 -84 -140 -31 -47 -64 -101 -74 -120 -10 -19 -36
-62 -58 -94 -22 -32 -43 -73 -48 -90 -4 -17 -20 -74 -34 -126 -15 -52 -31
-117 -35 -145 -14 -85 -48 -191 -129 -405 -95 -250 -141 -374 -141 -384 0 -4
35 -6 77 -4 l78 3 33 120 c17 66 48 167 68 225 134 392 184 547 204 633 16 72
27 100 41 108 31 16 134 180 202 319 33 69 71 137 85 152 13 14 25 30 25 35 1
4 5 7 8 6 4 -1 17 10 30 24 19 21 20 25 6 20 -10 -4 -16 -3 -13 1 3 5 56 10
118 11 138 2 411 38 698 91 301 55 265 58 343 -28 37 -39 67 -79 67 -87 0 -18
-16 -20 -26 -4 -4 8 -35 10 -89 7 -74 -4 -89 -8 -171 -52 -181 -98 -278 -188
-453 -424 l-76 -103 -42 4 c-30 3 -51 13 -74 36 -17 17 -46 38 -63 45 -18 8
-45 26 -59 40 -22 22 -35 27 -65 24 -52 -4 -55 -35 -6 -65 39 -26 55 -28 71
-12 16 16 96 -36 89 -59 -2 -9 -7 -35 -11 -57 -3 -22 -24 -78 -46 -125 -37
-79 -45 -88 -107 -130 -37 -25 -128 -90 -202 -145 -74 -56 -140 -104 -147
-108 -6 -4 -34 -2 -63 4 -66 14 -85 -1 -95 -73 -8 -53 0 -68 38 -68 18 0 95
48 126 79 26 26 118 91 128 91 6 0 30 15 54 33 24 19 85 61 134 94 96 65 252
218 345 338 29 39 105 127 168 197 141 158 238 237 357 292 l40 18 -21 -24
c-47 -52 -112 -170 -85 -153 6 3 11 12 11 19 0 14 48 62 58 59 4 -2 7 2 7 7 0
6 5 11 10 12 6 1 26 21 45 44 42 51 76 68 121 59 61 -11 72 -27 66 -87 -15
-134 -8 -124 -142 -185 -66 -30 -140 -64 -165 -76 -58 -28 -276 -244 -358
-355 -61 -83 -213 -372 -258 -491 -15 -38 -24 -85 -24 -117 0 -44 -8 -71 -40
-134 -22 -44 -40 -82 -40 -85 0 -3 33 -5 74 -5 l73 0 37 103 c20 57 36 108 36
115 0 6 9 16 19 22 26 13 34 13 25 -3 -5 -7 -1 -7 12 3 41 31 63 53 59 61 -7
10 83 39 101 32 9 -3 29 4 45 16 50 37 340 100 366 79 7 -5 17 -7 23 -3 14 9
171 -55 164 -67 -3 -4 1 -5 9 -3 18 8 472 -208 576 -273 29 -18 55 -31 57 -29
2 2 1 18 -2 35 -7 35 -47 70 -169 149 -44 29 -74 53 -67 54 6 1 17 2 23 3 11
1 38 44 38 61 0 6 -8 -6 -19 -25 -34 -61 -21 -15 19 72 58 124 117 183 254
256 326 173 383 200 482 225 141 37 288 65 375 72 76 7 316 64 459 109 116 37
349 69 446 61 44 -3 151 -2 238 4 125 8 164 7 189 -3 21 -9 26 -15 17 -20 -8
-3 -5 -4 6 -1 25 6 199 -77 188 -90 -4 -4 -3 -5 4 -1 6 3 34 -7 62 -23 98 -58
302 -194 297 -198 -2 -3 -16 3 -30 12 -14 10 -26 13 -26 7 0 -5 10 -12 23 -16
18 -5 20 -8 7 -16 -20 -13 -4 -13 21 0 16 9 35 -1 120 -61 55 -39 98 -74 95
-76 -3 -3 -19 5 -35 17 -17 12 -31 19 -31 16 0 -3 21 -20 48 -37 26 -18 41
-25 33 -16 -25 31 2 17 76 -39 40 -31 71 -61 70 -67 -1 -6 5 -11 14 -12 16 0
79 -49 79 -61 0 -4 -12 3 -27 17 -34 30 -10 -2 35 -47 19 -19 38 -34 43 -34 4
0 6 -8 3 -18 -5 -14 -4 -15 5 -2 14 20 14 30 -2 30 -8 0 -24 11 -37 25 -33 35
-19 31 42 -12 120 -84 120 -83 106 -101 -12 -15 -11 -16 4 -4 15 12 22 10 53
-13 30 -24 33 -30 23 -44 -12 -14 -11 -14 4 -3 15 12 23 9 62 -24 25 -21 43
-41 40 -45 -2 -4 1 -11 7 -15 8 -4 9 -3 5 4 -9 15 7 15 22 0 9 -9 7 -15 -6
-25 -15 -13 -14 -13 6 -3 19 9 29 6 67 -21 24 -18 42 -36 39 -40 -3 -5 1 -6 8
-4 8 3 27 -8 43 -25 16 -16 25 -30 20 -30 -4 0 -13 7 -19 16 -10 13 -12 13
-12 -4 0 -17 10 -19 116 -20 l115 -2 -50 47 c-27 25 -77 72 -110 103 -201 188
-580 480 -1005 775 -121 84 -311 201 -396 243 -44 22 -123 63 -176 91 -280
149 -661 285 -1138 406 -71 18 -124 24 -210 24 -63 1 -135 2 -160 3 -25 1 -58
-2 -75 -6 -28 -7 -28 -6 5 10 21 10 55 16 85 14 28 -1 85 4 127 11 70 11 91
10 210 -10 136 -24 161 -29 382 -81 71 -17 135 -29 143 -26 9 4 11 1 7 -6 -5
-7 1 -9 19 -6 15 3 24 2 22 -2 -3 -4 11 -11 29 -14 32 -6 139 -49 466 -186 69
-28 173 -81 232 -117 95 -57 141 -73 122 -41 -4 6 1 6 14 -1 12 -6 24 -17 28
-24 5 -8 2 -7 -10 2 -11 10 -20 11 -27 4 -13 -13 96 -77 113 -67 6 4 8 3 5 -3
-9 -15 126 -85 150 -77 13 4 14 3 5 -4 -10 -7 1 -17 45 -42 32 -18 82 -50 112
-71 54 -39 78 -49 65 -27 -4 7 -3 8 5 4 6 -4 9 -11 6 -15 -5 -9 21 -28 303
-221 60 -41 64 -43 80 -26 16 17 16 18 -8 12 -14 -3 -19 -3 -12 0 10 5 10 9 1
20 -10 12 -8 13 7 8 18 -7 18 -6 -1 16 -17 20 -14 19 19 -5 21 -16 33 -31 27
-33 -9 -3 -9 -7 0 -18 8 -10 9 -17 0 -28 -9 -10 0 -21 44 -50 31 -20 91 -68
135 -106 75 -66 100 -84 84 -59 -4 7 1 7 16 -1 12 -6 19 -17 17 -25 -6 -15 59
-82 70 -72 3 4 -2 14 -13 22 -14 11 -15 14 -2 9 10 -3 18 1 21 13 4 16 5 16 6
1 0 -10 5 -18 10 -18 17 0 5 30 -24 60 -36 37 -58 40 -24 3 l24 -27 -31 25
c-17 13 -27 27 -22 30 12 8 -169 164 -188 163 -8 -1 -12 2 -9 6 2 4 -24 29
-58 57 -184 147 -226 178 -294 224 -40 27 -79 47 -85 43 -6 -4 -8 -3 -5 3 9
14 -17 24 -40 17 -14 -4 -15 -4 -5 4 10 7 -4 19 -55 47 -37 21 -104 63 -148
93 -100 67 -400 216 -416 206 -7 -4 -9 -3 -5 4 3 6 -2 16 -13 21 -24 14 -34
14 -26 2 3 -6 -5 -15 -17 -21 -19 -9 -21 -9 -8 2 25 22 22 36 -14 63 -21 16
-40 23 -52 19 -15 -4 -16 -4 -5 4 11 8 -7 21 -76 55 -214 108 -509 202 -835
267 -169 34 -488 65 -568 55 -76 -10 -170 -40 -214 -70 -20 -14 -50 -25 -66
-25 -50 0 -240 -31 -347 -56 -57 -13 -108 -24 -115 -24 -7 0 16 26 50 57 35
31 68 67 73 80 7 18 42 40 142 88 133 64 232 98 387 131 137 30 399 18 639
-27 117 -23 606 -164 722 -209 42 -16 110 -36 151 -45 42 -8 127 -36 190 -61
62 -25 133 -54 158 -63 48 -19 455 -240 740 -403 245 -140 364 -221 446 -302
39 -39 153 -143 255 -231 101 -88 288 -262 414 -387 l230 -228 88 0 88 0 -35
42 c-19 24 -68 75 -108 114 -40 40 -86 87 -103 105 l-30 34 31 -27 c30 -28 51
-37 39 -18 -3 6 -1 10 4 10 6 0 10 -10 8 -21 -1 -12 4 -24 12 -27 8 -3 11 0 7
7 -4 6 -3 18 2 27 8 15 10 15 16 -1 3 -10 2 -23 -4 -30 -7 -9 -7 -15 -1 -19 5
-4 12 -2 16 4 3 5 12 10 18 10 7 0 4 -5 -6 -11 -19 -11 -14 -30 6 -25 7 1 8 1
4 -2 -4 -2 -3 -10 4 -18 6 -8 15 -12 19 -9 4 3 13 -2 20 -10 6 -7 19 -11 28
-8 13 4 12 2 -3 -10 -11 -8 -17 -19 -12 -23 4 -4 7 -2 7 5 0 32 89 -50 90 -81
0 -17 37 -18 631 -18 419 0 628 3 624 10 -3 6 -16 8 -28 5 -17 -5 -26 1 -39
22 -9 15 -28 40 -42 55 -14 15 -26 32 -26 37 0 6 -9 16 -20 23 -11 7 -20 16
-20 20 0 9 -64 81 -122 139 -27 25 -48 51 -48 58 0 11 -12 15 -40 12 -12 -2
-12 0 -1 7 9 7 10 12 2 16 -18 11 -13 26 7 20 14 -5 14 -4 2 4 -8 6 -17 9 -22
6 -4 -3 -17 5 -28 16 -26 26 -56 22 -52 -5 2 -12 0 -16 -5 -9 -4 6 -15 13 -23
16 -11 4 -9 8 10 16 14 6 20 11 13 11 -6 1 -19 4 -29 8 -12 4 -15 3 -10 -5 5
-8 -2 -12 -21 -13 l-28 0 25 -11 c21 -9 22 -12 8 -15 -24 -6 -23 -22 3 -49 24
-25 18 -44 -12 -44 -24 0 -58 37 -59 63 0 9 -4 17 -9 17 -5 0 -11 8 -15 18 -8
23 -28 54 -48 73 -10 9 -15 19 -11 23 3 3 0 6 -7 6 -7 0 -10 3 -7 7 4 3 -5 12
-19 19 -22 12 -29 12 -46 -1 -15 -10 -26 -11 -40 -4 -15 8 -18 6 -18 -11 0
-11 -5 -20 -11 -20 -11 0 -9 -16 6 -52 5 -14 2 -18 -13 -18 -12 0 -24 -4 -27
-10 -13 -22 -35 -7 -71 47 -44 67 -88 126 -123 166 -17 19 -20 27 -10 27 8 0
3 6 -11 13 -14 8 -24 19 -22 26 1 7 -2 10 -8 6 -5 -3 -13 0 -16 9 -8 21 -56
36 -78 24 -10 -5 -20 -7 -23 -4 -3 3 3 9 15 13 18 7 17 10 -18 24 -25 11 -42
13 -51 7 -11 -8 -11 -9 1 -5 9 3 25 -2 35 -10 19 -14 18 -14 -10 -11 -20 2
-29 -1 -28 -10 5 -21 -11 -13 -40 20 -15 17 -26 37 -23 44 3 8 0 11 -8 8 -8
-3 -27 7 -42 22 -16 15 -22 25 -14 21 61 -24 242 -102 323 -137 68 -31 94 -46
85 -53 -9 -6 -8 -7 4 -3 20 6 160 -53 153 -65 -3 -4 0 -11 6 -15 8 -5 9 -3 4
6 -11 18 1 14 220 -80 274 -118 325 -142 319 -152 -3 -4 2 -5 10 -2 18 7 68
-25 59 -39 -4 -6 -1 -7 6 -2 8 4 34 -2 62 -16 27 -12 45 -26 39 -29 -6 -4 2
-7 17 -7 31 0 289 -145 343 -194 25 -21 28 -27 12 -19 -28 14 -35 10 -16 -8 8
-7 14 -10 14 -6 0 3 8 0 17 -7 11 -10 14 -10 9 -1 -10 17 4 15 25 -4 9 -8 48
-26 85 -39 l69 -25 1561 0 1560 0 12 111 c6 62 10 115 7 119 -2 4 -5 114 -5
245 -1 273 -16 387 -56 435 -33 38 -32 83 2 109 41 33 58 27 73 -24 11 -37 16
-43 27 -34 8 6 14 18 14 27 0 8 3 13 6 9 4 -3 2 -20 -4 -36 -8 -22 -8 -30 0
-28 6 1 12 -14 14 -33 9 -126 23 -225 33 -228 6 -2 11 -10 11 -18 0 -9 5 -12
10 -9 11 7 12 2 12 -75 -1 -81 -1 -82 -10 -76 -14 8 -31 -102 -37 -234 -3 -69
-8 -155 -11 -192 l-7 -68 32 0 31 0 0 83 c0 46 7 130 15 188 10 78 12 127 5
199 -12 119 -12 132 -2 126 5 -3 6 23 4 57 -7 118 -30 234 -60 303 -47 108
-47 111 -15 119 17 4 29 2 31 -4 2 -6 13 -11 23 -11 38 0 230 -189 308 -304
30 -44 54 -84 54 -90 -1 -6 -2 -105 -3 -221 -1 -191 -13 -383 -26 -427 -5 -16
2 -18 54 -18 39 0 62 4 65 13 4 9 6 9 6 0 1 -8 15 -13 36 -13 35 0 47 16 20
26 -8 4 -15 13 -15 22 0 8 -3 12 -7 9 -3 -4 -13 2 -21 14 -28 40 -4 28 41 -21
l46 -50 86 0 c66 0 84 3 79 13 -6 9 -5 9 7 0 10 -8 80 -12 237 -12 l223 -1
-73 88 c-39 48 -100 120 -135 160 -35 40 -63 76 -63 80 0 5 -34 37 -75 73 -41
35 -75 66 -75 69 0 3 26 19 57 34 186 91 341 290 369 473 6 42 4 45 -69 137
-124 154 -193 227 -238 253 -116 66 -315 264 -471 468 -55 72 -109 178 -148
289 -42 119 -84 204 -127 261 -57 74 -191 136 -543 251 -131 43 -243 66 -480
99 -259 36 -614 93 -685 111 -112 28 -110 26 -124 111 -7 42 -24 109 -37 149
-33 102 -149 330 -176 348 -44 28 -532 185 -613 196 l-81 12 0 33 c0 41 -92
230 -136 281 -17 19 -44 42 -59 50 -47 24 -52 45 -25 100 14 27 51 105 84 174
32 69 80 160 105 203 26 43 47 82 47 87 0 4 7 13 15 20 12 10 15 9 15 -7 0
-11 -4 -33 -9 -49 -13 -40 -20 -124 -11 -124 4 0 28 36 54 80 53 92 127 199
139 199 15 2 5 -23 -43 -105 -27 -46 -46 -84 -42 -84 18 1 87 63 123 112 22
29 46 56 54 61 8 4 31 29 51 55 l36 47 -7 -60 c-4 -33 -9 -68 -11 -77 -8 -28
4 -21 21 11 28 55 115 150 173 189 61 42 138 82 157 82 18 0 127 73 176 117
81 73 186 219 254 353 15 29 28 50 30 48 1 -1 -1 -32 -6 -68 -15 -111 -135
-331 -238 -437 -37 -38 -51 -63 -35 -63 3 0 42 19 85 41 87 45 139 96 212 207
86 131 139 263 161 402 l12 75 18 -35 c25 -47 90 -110 114 -110 11 0 25 -7 33
-16 31 -37 86 -54 181 -55 104 0 159 9 268 48 90 31 99 38 79 58 -14 14 -24
13 -98 -15 -90 -33 -156 -38 -200 -16 -38 20 -96 87 -125 144 -13 26 -33 66
-45 89 -30 59 -28 156 5 281 34 127 87 235 135 274 24 20 46 51 65 96 76 180
154 279 154 196 0 -58 17 -14 49 126 19 83 38 150 42 150 12 0 21 -43 28 -135
l7 -90 36 72 c33 66 36 83 42 185 4 62 9 130 12 150 11 74 63 51 87 -39 6 -24
14 -43 18 -43 12 0 40 75 49 135 6 33 10 116 11 185 l1 125 18 -55 c11 -30 19
-66 19 -78 1 -13 7 -38 15 -55 8 -18 16 -38 18 -46 3 -10 12 -4 27 18 79 111
27 457 -94 626 l-52 72 -2 191 c-1 135 3 210 13 259 76 355 112 747 104 1153
-4 256 -20 347 -104 600 -77 231 -110 301 -204 424 -17 22 -28 41 -25 44 7 7
84 -65 128 -120 21 -27 45 -48 52 -48 22 0 35 32 23 55 -18 33 -132 190 -140
193 -15 7 -8 22 11 22 20 0 113 -88 139 -132 9 -16 21 -27 27 -25 25 9 10 51
-61 172 -67 113 -93 146 -198 251 -171 171 -372 300 -496 318 l-45 6 -1 188
c-1 167 -3 197 -26 283 -14 52 -40 130 -58 172 -69 167 -206 347 -264 347 -30
0 -42 -16 -26 -34 16 -21 20 -54 6 -59 -6 -3 -37 21 -68 52 -41 41 -63 74 -83
126 -95 239 -218 404 -455 606 -63 55 -149 130 -191 167 -85 75 -199 146 -301
186 -82 32 -92 33 -78 6 6 -11 17 -20 24 -20 31 0 89 -101 66 -115 -5 -3 -50
37 -100 89 -50 52 -103 98 -118 104 -107 39 -328 104 -364 106 -30 2 -61 14
-102 40 -43 28 -85 44 -160 61 -55 13 -140 34 -187 47 -53 15 -93 22 -102 17
-9 -6 -38 1 -78 18 l-64 26 -145 -12 c-80 -6 -205 -11 -278 -11 -73 0 -198 -7
-279 -15 -194 -21 -278 -22 -460 -7 -84 6 -219 16 -301 22 -81 5 -199 18 -262
28 -63 11 -127 20 -141 20 -54 3 -188 53 -267 101 -59 36 -82 46 -82 35 0 -27
-25 -9 -30 22 -9 51 -35 36 -38 -22 -3 -59 28 -154 79 -240 45 -75 170 -208
227 -241 52 -31 40 -43 -19 -19 -53 22 -61 19 -19 -5 19 -11 27 -18 18 -15 -9
3 -36 10 -60 16 -64 18 -223 103 -303 162 -153 115 -350 325 -376 403 -8 22
-23 56 -34 74 l-19 35 -81 -165 -80 -164 1 -85 c1 -93 30 -192 76 -266 14 -21
28 -49 32 -61 6 -20 58 -71 102 -101 18 -13 18 -13 -1 -6 -11 4 -43 15 -72 25
-113 38 -229 117 -329 221 -99 103 -152 180 -216 315 l-51 105 6 112 c4 61 11
126 16 144 5 18 8 39 5 46 -2 7 13 22 36 35 68 38 43 58 -28 22 -20 -10 -70
-35 -110 -55 -89 -44 -222 -172 -297 -285 -96 -147 -180 -340 -203 -471 l-8
-45 -17 90 c-9 50 -19 146 -22 215 -6 117 -5 130 19 207 15 45 31 85 36 88 6
3 10 11 10 16 0 6 -13 1 -29 -10 -16 -12 -34 -21 -39 -21 -6 0 -21 -15 -34
-32 -12 -18 -64 -77 -115 -131 -176 -186 -232 -300 -261 -530 -9 -76 -21 -138
-26 -138 -12 0 -33 74 -47 166 -20 130 3 382 46 511 93 277 197 389 515 548
l165 83 116 7 c155 8 258 -10 359 -62 41 -21 74 -43 73 -50 -2 -6 8 -28 22
-48 14 -20 25 -42 25 -49 0 -26 31 -24 61 3 24 22 31 36 31 65 0 76 -65 126
-235 183 -138 46 -225 51 -411 24z m-1591 -1965 c-16 -8 -87 -40 -156 -70
-128 -57 -293 -144 -404 -214 -33 -21 -91 -55 -130 -76 -38 -21 -83 -51 -98
-67 -16 -15 -33 -25 -38 -22 -6 3 -19 -2 -30 -12 -10 -9 -22 -14 -26 -11 -22
23 105 150 231 232 169 110 369 193 563 234 106 23 128 24 88 6z m1781 -1875
c7 0 -3 28 -22 63 -18 34 -34 66 -34 71 0 15 39 -35 77 -97 41 -68 81 -90 161
-88 62 2 66 20 -40 -162 -38 -64 -97 -175 -131 -245 -35 -70 -82 -161 -104
-202 -69 -125 -145 -370 -174 -555 -14 -97 -14 -502 0 -630 19 -156 84 -386
163 -575 42 -99 228 -464 234 -458 1 2 -1 21 -6 42 -4 21 -13 95 -20 164 -6
70 -20 192 -30 272 -32 240 -61 604 -47 590 3 -3 12 -54 22 -115 19 -129 80
-319 131 -413 150 -276 173 -310 312 -457 42 -44 91 -101 110 -127 19 -27 36
-48 38 -48 9 0 -29 66 -66 115 -20 28 -48 68 -62 91 -27 42 -88 179 -88 196 0
6 28 -32 61 -83 68 -103 196 -239 225 -239 10 0 49 -30 86 -67 37 -37 70 -65
72 -62 3 2 -12 31 -33 64 -21 33 -41 75 -44 92 -6 30 -3 34 31 52 20 10 54 33
76 50 32 26 41 29 60 19 44 -23 112 -72 149 -106 51 -49 49 -82 -7 -197 -25
-51 -54 -131 -67 -184 -12 -52 -31 -109 -41 -127 -11 -20 -18 -46 -16 -65 3
-30 7 -34 53 -46 28 -7 59 -12 70 -12 11 0 -8 7 -42 15 -34 8 -64 21 -66 28
-4 9 1 13 11 11 9 -2 32 -6 50 -9 l33 -6 -7 48 c-3 26 -11 52 -16 59 -5 7 -7
26 -3 44 5 22 3 34 -6 40 -11 7 -10 9 3 9 10 0 15 5 12 13 -6 16 44 44 76 42
14 -1 49 -4 78 -5 31 -2 57 1 64 8 33 33 108 -3 108 -52 0 -23 -22 -55 -38
-57 -41 -5 -50 -5 -47 1 3 4 -5 16 -17 26 -12 11 -19 14 -15 8 6 -11 -66 -27
-126 -27 -21 0 -25 -3 -16 -13 8 -10 8 -22 0 -45 -15 -43 -15 -43 15 -78 20
-24 23 -35 15 -45 -8 -10 -5 -18 13 -35 12 -12 33 -45 47 -74 13 -28 24 -54
26 -56 1 -2 13 3 26 12 24 15 24 15 37 -24 7 -21 17 -39 22 -39 4 0 8 -9 8
-20 0 -11 9 -29 19 -39 17 -17 29 -19 93 -14 86 7 165 39 160 66 -2 9 2 17 8
17 5 0 10 -5 10 -10 0 -6 13 -4 31 5 27 14 33 15 52 2 19 -12 25 -12 44 0 13
9 23 21 23 29 0 25 22 26 44 1 25 -29 76 -45 76 -23 0 8 -16 23 -35 35 -33 19
-45 44 -27 55 5 3 27 0 50 -6 55 -14 64 -3 26 30 -19 17 -31 37 -32 55 -2 31
3 32 38 12 59 -34 54 1 -5 38 -31 19 -51 42 -64 72 -22 50 -83 141 -148 223
l-46 57 48 -45 c41 -39 36 -30 -36 64 -46 60 -149 190 -228 290 -91 113 -134
174 -115 162 16 -10 49 -41 73 -68 24 -27 45 -47 47 -45 2 2 -10 30 -26 63
-79 153 -199 448 -187 460 1 2 40 -71 86 -161 101 -200 161 -299 238 -390 32
-38 85 -106 118 -150 69 -92 230 -261 196 -205 -110 179 -133 221 -127 236 9
24 23 9 105 -109 76 -110 157 -207 172 -207 6 0 -1 15 -15 33 -43 56 -148 279
-166 352 -29 112 -16 113 92 5 51 -52 115 -119 140 -149 26 -30 50 -52 53 -49
11 10 -50 131 -117 233 -60 90 -191 233 -255 276 -12 8 -35 51 -54 99 -57 148
-156 473 -194 635 -42 180 -43 244 -3 115 106 -338 164 -495 229 -624 150
-296 425 -603 719 -802 69 -46 156 -107 195 -134 38 -27 71 -47 74 -45 2 3
-11 28 -29 57 -19 29 -61 98 -93 153 -33 55 -99 161 -148 236 -99 155 -134
218 -123 227 4 4 9 0 12 -8 14 -38 278 -415 370 -527 124 -152 145 -191 172
-322 42 -209 23 -298 -86 -402 -150 -141 -315 -211 -576 -244 -27 -4 -48 -11
-48 -17 0 -8 28 -9 93 -4 189 15 207 16 207 8 0 -4 -33 -24 -72 -45 l-73 -37
99 3 99 3 -44 -19 c-24 -10 -72 -28 -106 -39 -35 -12 -63 -25 -63 -30 0 -5 73
-8 170 -6 94 2 169 0 168 -4 -2 -4 -44 -51 -93 -105 -132 -143 -296 -370 -312
-431 -24 -96 -131 -302 -213 -407 -62 -80 -170 -234 -170 -242 0 -4 -19 -32
-43 -62 -44 -56 -63 -91 -49 -91 4 0 12 8 18 17 27 43 164 196 246 274 l91 87
126 43 c203 68 502 199 628 275 263 158 349 220 465 336 141 142 344 416 408
550 l27 56 84 -3 c94 -4 244 -47 306 -89 64 -44 108 -128 143 -273 50 -207 16
-364 -133 -624 -45 -78 -80 -122 -167 -209 -146 -146 -271 -235 -440 -312
-141 -65 -374 -108 -585 -108 -242 0 -381 28 -520 106 -88 50 -120 52 -131 8
-4 -14 -5 -26 -3 -28 2 -2 35 -26 72 -54 162 -121 517 -171 740 -106 15 5 17
-3 17 -76 0 -100 23 -213 62 -307 32 -78 112 -199 152 -231 l26 -20 -28 -8
c-15 -4 -33 -6 -41 -5 -8 1 -50 -2 -95 -8 -44 -6 -201 -15 -347 -21 -832 -31
-1700 -162 -2229 -336 -74 -24 -171 -51 -215 -60 -44 -8 -95 -22 -114 -30 -19
-8 -53 -19 -77 -23 l-42 -8 -24 71 c-18 57 -23 91 -22 172 2 168 35 207 283
333 64 32 140 64 169 70 29 6 118 11 198 11 151 0 184 7 184 40 0 19 -8 20
-252 20 -230 0 -777 23 -810 34 -7 3 -112 10 -233 16 -298 15 -533 37 -635 60
-47 10 -128 26 -180 34 -175 29 -275 65 -371 134 -209 149 -242 234 -253 644
-8 308 -57 850 -97 1073 -6 33 -13 179 -16 325 -4 216 -2 282 11 357 23 133
67 260 138 403 73 145 84 152 151 97 64 -51 163 -114 237 -148 67 -31 120 -49
120 -40 0 10 -45 51 -107 95 -83 59 -171 162 -207 241 l-32 70 28 83 c46 134
54 217 39 435 -6 103 -16 200 -22 215 -5 14 -10 78 -10 141 0 164 30 304 110
514 l11 29 53 -48 c28 -26 81 -61 117 -78 36 -18 95 -49 133 -70 38 -21 74
-35 83 -32 9 3 25 -1 37 -9 25 -17 41 -20 32 -5 -10 16 18 11 58 -10 l39 -21
-8 23 c-4 13 -14 32 -22 43 -21 28 -118 106 -165 133 -22 12 -60 40 -86 61
-61 51 -98 69 -159 77 -63 8 -77 23 -91 94 -10 54 -10 57 34 145 24 50 80 142
124 205 44 63 100 148 123 188 74 126 154 246 182 271 35 33 33 45 -6 39 -46
-7 -58 -1 -58 32 0 34 30 56 101 72 50 12 50 12 25 25 -47 25 -27 73 29 73 39
0 47 7 33 30 -9 14 -9 22 0 33 14 17 86 37 131 37 36 0 39 9 11 33 -24 20 -17
45 18 58 31 12 113 -10 163 -44 19 -12 54 -31 78 -40 56 -23 74 -10 49 34
l-18 30 28 -15 c15 -9 38 -20 52 -26 14 -5 33 -16 42 -22 26 -19 62 20 62 66
l0 34 71 -74 c38 -41 75 -74 81 -74z m2503 -60 c5 0 20 -14 32 -32 13 -17 18
-28 11 -24 -21 13 -13 -2 52 -97 75 -109 175 -282 204 -352 20 -49 30 -99 38
-180 l3 -40 -57 60 c-142 150 -202 231 -241 327 -49 121 -140 372 -144 398 -2
10 -6 23 -10 26 -4 4 -7 12 -7 18 1 6 25 -15 55 -46 30 -32 59 -58 64 -58z
m511 -576 c63 -122 112 -273 108 -328 l-4 -41 -12 30 c-7 17 -17 39 -23 49 -6
11 -24 56 -39 100 -15 45 -45 119 -65 166 -39 89 -56 145 -47 154 8 8 25 -20
82 -130z m-2380 -704 c19 -81 131 -431 154 -482 7 -14 3 -14 -32 3 -52 26 -92
18 -92 -19 0 -38 30 -155 45 -172 6 -8 15 -23 18 -32 10 -30 52 -48 123 -55
67 -5 70 -7 119 -57 28 -29 72 -93 100 -146 28 -52 60 -106 73 -121 37 -45 25
-43 -29 5 -119 107 -251 168 -286 133 -14 -14 -9 -19 60 -52 138 -68 290 -208
550 -509 10 -12 42 -46 70 -76 119 -129 128 -140 52 -69 -44 41 -168 142 -275
224 -107 82 -220 171 -250 198 -67 59 -100 78 -148 81 l-36 2 -44 109 c-54
139 -128 351 -147 426 -18 68 -52 426 -59 624 -6 148 -4 147 34 -15z m-2599
-96 c-22 -44 -49 -105 -61 -137 -12 -32 -24 -56 -26 -54 -7 7 53 153 89 219
46 84 45 63 -2 -28z m5980 19 c53 -118 87 -206 72 -184 -22 30 -102 202 -103
219 0 23 9 12 31 -35z m336 -260 c101 -229 131 -303 122 -297 -32 19 -176 280
-199 361 -13 41 -9 73 8 73 5 0 36 -62 69 -137z m326 -45 c81 -99 185 -286
202 -362 l6 -29 -43 7 c-24 4 -47 11 -52 17 -13 12 -29 12 -21 -1 15 -24 -19
-7 -59 30 -33 31 -65 81 -125 199 -45 88 -81 166 -81 175 0 22 26 20 43 -4 17
-24 43 -18 50 11 7 28 34 13 80 -43z m404 -246 c32 -49 96 -200 75 -177 -42
47 -162 244 -162 266 0 20 49 -31 87 -89z m-3839 -568 c-6 -5 -68 69 -68 80 0
3 16 -12 36 -34 20 -22 34 -43 32 -46z m267 -586 c7 -6 3 -14 -10 -24 -12 -9
-21 -11 -23 -4 -2 5 -10 10 -18 10 -14 0 -19 21 -7 33 8 8 44 -1 58 -15z m67
-155 c25 -29 88 -136 88 -152 0 -4 -12 -8 -27 -8 -94 1 -114 -3 -101 -17 8 -9
17 -11 24 -5 10 8 27 -6 63 -54 12 -15 11 -20 -4 -37 -13 -15 -16 -29 -12 -57
9 -55 -1 -65 -43 -42 -19 10 -48 23 -63 30 -16 6 -26 17 -23 24 3 8 -2 11 -14
8 -14 -4 -23 2 -31 21 -7 14 -18 26 -26 26 -10 0 -11 5 -3 19 5 11 10 29 10
40 0 14 6 21 19 21 11 0 26 9 34 20 8 11 17 17 22 12 14 -13 -7 42 -26 70 -26
35 -24 73 3 92 35 25 80 20 110 -11z m-188 -335 c-3 -5 0 -17 6 -26 7 -9 -2
-1 -19 17 -22 26 -27 37 -18 43 14 9 40 -20 31 -34z m-1169 -2593 c-29 -18
-41 -21 -47 -12 -16 25 -2 33 62 35 22 1 21 -1 -15 -23z m3555 -256 c196 -10
236 -15 306 -38 55 -18 80 -22 77 -14 -4 9 0 11 11 7 9 -3 16 -9 16 -13 0 -4
8 -7 18 -8 45 -4 230 -77 255 -101 27 -25 103 -134 126 -179 21 -40 29 -112
18 -149 -9 -30 -8 -37 13 -59 15 -16 35 -25 54 -25 17 0 49 -5 71 -10 22 -5
62 -11 89 -14 112 -13 429 -114 511 -163 84 -50 151 -130 175 -212 26 -86 60
-254 60 -296 0 -38 12 -50 60 -60 19 -4 76 -19 125 -35 50 -15 178 -47 285
-70 107 -23 276 -64 375 -91 99 -26 254 -64 345 -84 244 -54 404 -101 450
-131 22 -15 40 -30 40 -33 0 -4 34 -34 76 -67 110 -85 128 -106 153 -174 26
-71 126 -266 180 -350 40 -63 214 -210 383 -323 65 -43 117 -88 160 -138 145
-168 208 -245 208 -253 0 -11 -174 -185 -230 -230 -45 -36 -169 -96 -223 -108
-69 -14 -72 -14 -69 5 5 28 -75 170 -136 243 -64 76 -144 142 -212 175 -41 19
-43 22 -24 30 43 15 311 78 382 88 91 14 232 75 232 101 0 11 -12 22 -27 28
-52 17 -315 -3 -364 -29 -9 -4 -39 -11 -67 -14 -28 -3 -82 -14 -119 -25 -111
-31 -490 -164 -598 -210 -55 -23 -116 -47 -135 -54 -19 -6 -118 -39 -220 -74
-102 -35 -243 -81 -315 -102 -169 -50 -330 -109 -430 -156 -102 -48 -868 -307
-1000 -338 -55 -13 -147 -37 -205 -54 -379 -111 -391 -114 -464 -102 -38 6
-93 17 -125 25 -86 22 -359 118 -421 149 -84 42 -299 132 -457 191 -90 34
-214 93 -340 162 -249 136 -368 195 -463 233 -109 42 -644 310 -860 430 -102
57 -273 148 -380 203 -107 55 -238 126 -290 157 -203 122 -307 164 -935 381
-127 43 -225 71 -500 143 -97 26 -402 58 -545 58 -110 0 -261 -26 -325 -57
-27 -13 -78 -36 -112 -50 -124 -50 -490 -235 -606 -304 -146 -88 -366 -235
-467 -311 -41 -31 -97 -69 -125 -85 -27 -16 -59 -36 -70 -46 -15 -13 -142 -78
-286 -147 -3 -1 5 32 19 75 13 43 29 93 34 111 5 18 23 62 40 99 23 51 32 63
40 52 7 -10 7 -7 3 10 -5 17 -4 22 5 16 9 -5 11 -4 6 3 -7 11 19 72 30 72 3 0
3 -10 -1 -22 -5 -20 -4 -21 5 -5 6 9 8 22 5 27 -9 14 14 52 27 44 7 -4 8 -2 4
5 -16 26 231 288 262 276 16 -6 52 30 52 52 0 9 16 34 37 55 30 31 39 35 56
27 26 -15 44 5 50 56 6 44 50 90 77 79 32 -13 45 -7 65 30 25 48 83 88 106 73
23 -14 45 -3 61 30 7 16 33 39 59 52 44 23 48 24 63 8 22 -22 46 -10 73 35 16
26 36 39 98 62 70 27 78 28 87 13 15 -28 45 -19 79 23 18 22 40 42 51 45 10 3
27 8 38 11 16 4 20 1 20 -19 0 -26 23 -42 43 -30 7 3 30 20 52 37 41 32 105
60 105 45 0 -4 -10 -15 -22 -23 -35 -25 0 -19 57 9 28 13 60 32 73 41 19 14
22 14 22 1 0 -9 12 -16 29 -19 22 -3 37 3 60 24 17 16 31 34 31 39 0 14 166
178 265 261 187 158 399 278 675 382 80 30 246 93 370 141 271 105 223 90 565
170 154 36 300 70 324 76 411 96 996 175 1581 214 129 9 249 17 265 19 83 8
648 5 845 -5z m-6964 -2282 l62 -12 -22 -47 -21 -48 -56 60 c-62 65 -61 66 37
47z m3675 -267 c114 -20 146 -30 93 -30 -16 0 -44 -4 -62 -10 -29 -8 -40 -5
-73 15 -21 14 -42 25 -47 25 -4 0 -17 7 -28 16 -10 8 -13 13 -7 9 7 -3 63 -15
124 -25z m653 -138 c6 -5 40 -19 74 -32 35 -13 80 -34 100 -48 21 -14 66 -42
101 -63 60 -36 61 -37 29 -35 -19 2 -43 8 -54 15 -17 11 -17 11 6 6 23 -5 23
-5 6 6 -15 9 -24 9 -38 0 -10 -6 -24 -9 -31 -6 -7 4 -3 -1 7 -9 11 -9 14 -16
8 -16 -19 0 2 -35 60 -100 27 -30 52 -66 55 -80 3 -14 11 -28 17 -32 7 -5 6
-8 -4 -8 -8 0 -83 66 -166 148 -152 147 -229 206 -243 183 -4 -6 -15 -9 -25
-5 -10 4 -24 -1 -35 -12 -21 -22 -14 -93 12 -122 10 -10 17 -23 17 -29 0 -15
97 -96 107 -90 5 3 17 -1 28 -9 10 -8 15 -14 10 -14 -5 0 7 -17 26 -37 31 -34
29 -33 -26 11 -85 67 -383 280 -428 306 -21 13 -36 25 -33 28 3 3 14 -1 23 -9
16 -13 17 -12 4 4 -8 10 -9 17 -3 17 6 0 16 -9 22 -20 6 -11 15 -20 21 -20 5
0 -1 12 -14 26 -21 22 -28 24 -45 15 -17 -9 -28 -7 -58 11 -33 20 -35 23 -19
32 10 6 38 25 63 41 l45 31 185 -38 c101 -21 190 -42 196 -46z m-1461 10 c-29
-16 -31 -18 -15 -29 15 -10 15 -11 -5 -6 -13 3 -21 12 -20 23 1 10 5 16 9 14
4 -3 16 0 25 5 10 6 23 10 28 10 6 0 -5 -8 -22 -17z m-476 -128 c79 -26 142
-48 140 -51 -3 -2 -20 -6 -38 -8 -19 -2 -63 -11 -99 -19 -36 -8 -111 -22 -166
-31 -56 -9 -184 -38 -285 -66 -101 -27 -254 -61 -339 -75 -168 -28 -286 -57
-535 -129 -129 -37 -196 -64 -345 -138 -102 -50 -191 -91 -197 -90 -7 0 -11
-2 -9 -6 3 -4 -37 -54 -88 -112 -50 -58 -113 -135 -140 -171 l-48 -66 -27 27
c-53 52 -65 80 -52 123 8 24 16 36 23 32 7 -4 8 -2 4 5 -10 15 31 70 99 136
28 28 62 64 76 80 43 54 155 132 133 93 -4 -8 -3 -10 2 -5 5 5 9 14 9 20 0 30
303 141 720 265 185 56 215 62 242 57 18 -3 22 -2 11 2 -12 6 31 22 140 52
181 51 219 66 227 91 8 24 27 27 229 29 l170 1 143 -46z m2707 -262 c92 -46
166 -86 163 -89 -3 -3 -22 5 -42 17 -19 12 -42 19 -51 16 -8 -3 -12 -2 -9 4 8
13 -32 32 -53 26 -9 -3 -24 -1 -32 5 -12 8 -9 9 10 4 l25 -6 -25 15 c-25 15
-65 23 -45 8 6 -4 10 -14 10 -22 0 -8 29 -44 65 -80 102 -103 242 -259 262
-291 20 -33 24 -73 6 -67 -6 2 -12 12 -14 22 -3 23 -21 42 -31 33 -3 -4 2 -14
13 -22 17 -13 17 -14 2 -15 -10 0 -18 5 -18 10 0 6 -6 10 -14 10 -17 0 -139
122 -177 177 -16 23 -51 66 -78 95 -77 82 -91 98 -91 103 0 3 -8 13 -17 23
-10 10 -28 31 -40 45 -13 15 -31 27 -40 27 -14 1 -12 4 7 16 l25 15 -30 -5
c-16 -3 -24 -3 -17 0 16 8 15 24 -2 24 -7 0 -19 7 -26 15 -18 21 60 -12 264
-113z m241 -119 c30 -15 55 -31 55 -35 0 -5 -11 -1 -25 8 -14 9 -32 14 -40 10
-9 -3 -13 -2 -10 4 3 6 -5 14 -19 20 -14 5 -26 12 -26 15 0 9 7 6 65 -22z
m-565 -83 c18 0 60 -48 60 -69 0 -6 6 -11 13 -11 6 0 17 -12 24 -26 10 -21 9
-26 -4 -31 -8 -3 -19 0 -24 8 -6 9 -9 10 -9 2 0 -6 5 -15 11 -18 6 -4 8 -13 5
-21 -7 -18 4 -17 28 1 11 8 25 15 30 15 6 -1 -1 -8 -16 -16 -16 -8 -28 -19
-28 -24 0 -4 25 -30 55 -56 31 -26 53 -49 50 -52 -3 -3 -40 28 -83 69 -42 41
-121 110 -174 154 -54 43 -95 81 -93 84 3 2 14 -4 24 -13 11 -10 24 -15 30
-12 6 4 22 0 35 -9 25 -16 46 -13 46 6 0 6 -4 8 -9 5 -5 -4 -8 2 -6 11 5 28 6
29 12 16 2 -7 13 -13 23 -13z m666 -254 c24 -24 16 -38 -11 -19 -13 10 -25 21
-25 26 0 12 20 8 36 -7z m-1156 -61 c0 -7 12 -23 26 -34 15 -12 23 -21 19 -21
-16 0 -61 47 -57 59 3 9 0 11 -8 6 -9 -5 -11 -4 -6 4 9 14 26 5 26 -14z m735
-7 c5 4 4 1 0 -7 -6 -11 -4 -13 11 -7 10 4 15 4 11 0 -4 -4 3 -19 15 -33 l23
-25 -30 21 c-16 12 -39 31 -50 44 -11 13 -13 18 -4 11 9 -6 20 -8 24 -4z
m5280 -109 c4 -29 3 -31 -10 -18 -9 8 -12 23 -8 37 7 29 13 23 18 -19z m-56 0
l-24 -20 25 6 c21 5 22 4 7 -5 -9 -6 -21 -9 -26 -6 -11 7 -42 -4 -37 -13 2 -3
-10 -7 -27 -7 -29 -1 -27 1 19 21 28 13 55 28 58 34 4 6 12 11 18 11 5 0 0 -9
-13 -21z m-5014 -49 c3 -6 -1 -7 -9 -4 -27 11 -17 -14 17 -40 17 -14 29 -26
26 -26 -3 0 -22 13 -42 29 -27 21 -33 31 -24 40 14 14 24 14 32 1z m5066 -175
l-11 -40 5 49 c3 27 6 72 7 100 l2 51 3 -60 c2 -33 -1 -78 -6 -100z m760 134
c13 -11 31 -25 39 -29 29 -16 3 -20 -33 -5 -25 10 -37 22 -37 35 0 25 1 25 31
-1z m59 -150 c0 -5 7 -9 16 -7 11 2 18 -5 19 -20 2 -22 2 -22 -17 -2 -10 11
-28 29 -41 41 l-22 21 23 -11 c12 -6 22 -16 22 -22z m324 -141 c15 -15 24 -28
18 -28 -6 0 -17 9 -25 20 -20 29 -96 82 -107 75 -6 -3 -7 1 -4 9 5 13 13 10
48 -16 22 -17 54 -44 70 -60z"/>
<path d="M4360 8973 c-45 -20 -24 -28 40 -14 35 7 72 8 118 1 154 -23 235 -62
337 -164 44 -45 72 -70 62 -56 -10 14 -25 39 -35 55 -46 80 -148 149 -270 180
-75 20 -207 19 -252 -2z"/>
<path d="M4478 8863 c-24 -6 -23 -19 2 -36 18 -13 19 -15 5 -21 -31 -12 -72
-6 -98 14 -30 24 -37 25 -37 6 0 -8 9 -17 19 -21 25 -8 31 -42 13 -80 -8 -16
-16 -32 -18 -34 -2 -2 -22 8 -45 23 -28 19 -44 25 -51 18 -18 -18 0 -41 49
-64 38 -19 48 -29 55 -58 5 -19 13 -52 20 -72 l11 -37 29 45 c20 32 42 51 74
65 l45 21 68 -21 c37 -11 82 -31 100 -43 l34 -23 -2 -127 -2 -128 24 0 c43 0
142 23 158 36 37 33 67 3 53 -53 -10 -39 -24 -45 -59 -25 -21 12 -39 16 -60
11 l-30 -8 30 2 c17 0 39 -5 50 -11 18 -12 16 -13 -16 -10 l-37 4 -7 -51 c-4
-27 -8 -73 -9 -102 -2 -42 0 -50 12 -45 9 3 13 1 9 -5 -4 -6 1 -17 11 -24 15
-13 16 -12 3 4 -19 24 2 22 24 -3 19 -21 50 -26 60 -10 3 6 11 10 17 10 6 0 5
-7 -3 -17 -12 -16 -12 -17 2 -6 9 7 20 9 25 5 4 -4 3 0 -3 8 -9 11 -8 20 3 34
18 25 18 53 0 63 -15 8 -29 143 -15 143 4 0 6 8 4 18 -1 9 0 12 2 6 2 -5 26
-23 53 -39 28 -16 50 -35 50 -42 0 -7 4 -13 9 -13 10 0 -2 60 -20 106 -7 16
-13 47 -14 69 -3 51 -41 145 -88 216 -40 60 -194 219 -244 250 -60 38 -208 67
-265 52z"/>
<path d="M4270 8604 c0 -18 5 -24 23 -24 40 0 67 12 67 29 0 13 -10 17 -45 18
-41 1 -45 0 -45 -23z"/>
<path d="M4766 8138 c7 -103 8 -105 93 -162 39 -27 59 -34 78 -30 17 5 31 0
49 -17 17 -16 23 -18 19 -7 -4 9 -2 19 4 23 6 3 11 14 10 23 0 12 -3 10 -10
-6 -5 -13 -14 -20 -19 -17 -8 5 -7 12 2 23 11 15 11 15 -2 6 -34 -25 -98 -22
-120 5 -3 4 -17 14 -31 23 -24 15 -25 20 -27 115 -1 54 -1 101 -2 106 0 4 -11
7 -25 7 l-26 0 7 -92z"/>
<path d="M5105 8062 c4 -8 -1 -21 -15 -34 -12 -11 -20 -28 -17 -37 3 -9 7 -23
9 -31 3 -8 3 -12 1 -7 -8 13 -25 7 -20 -7 3 -8 -1 -20 -9 -26 -8 -7 -14 -30
-14 -53 0 -45 -8 -45 -16 -1 -8 44 -15 43 -11 -1 4 -29 -1 -48 -16 -70 l-21
-30 22 19 c26 22 30 11 5 -16 -25 -28 -1 -21 26 7 13 14 27 25 33 25 15 0 59
103 48 114 -13 13 -13 62 0 106 7 24 7 37 -2 45 -8 7 -9 6 -3 -3z"/>
<path d="M4510 7945 c0 -28 3 -29 31 -15 28 15 24 40 -6 40 -20 0 -25 -5 -25
-25z"/>
<path d="M4754 7929 c-4 -7 -1 -10 7 -7 28 10 145 -65 133 -84 -4 -7 -2 -8 5
-4 7 4 15 -2 20 -16 9 -22 10 -22 10 -2 1 25 -27 52 -97 93 -58 34 -67 36 -78
20z"/>
<path d="M4575 7896 c-16 -12 -18 -17 -7 -28 10 -10 17 -9 37 5 14 9 26 20 28
25 4 14 -38 13 -58 -2z"/>
<path d="M4681 7879 c-13 -5 -30 -17 -37 -27 -17 -23 5 -36 46 -27 19 4 41 0
67 -13 53 -27 173 -65 180 -58 4 3 1 6 -6 6 -19 0 -72 40 -66 50 6 9 -24 24
-43 21 -7 -1 -15 5 -18 14 -5 13 -9 13 -22 3 -13 -11 -14 -10 -9 7 5 16 2 20
-16 21 -12 0 -29 3 -37 7 -8 3 -26 1 -39 -4z"/>
<path d="M5014 7473 c-72 -90 -149 -165 -214 -211 -36 -26 -90 -67 -120 -92
-91 -77 -154 -118 -184 -122 -41 -4 -55 -31 -36 -65 26 -47 57 -50 131 -15
125 60 294 219 358 337 12 22 38 62 56 88 31 43 60 115 51 124 -2 2 -21 -18
-42 -44z"/>
<path d="M6725 7369 c-9 -13 23 -49 45 -49 9 0 22 -6 29 -12 10 -9 12 -9 7 -1
-5 8 9 13 46 16 44 3 39 4 -23 5 -76 2 -110 17 -94 42 3 5 4 10 1 10 -3 0 -8
-5 -11 -11z"/>
<path d="M6362 7148 c-6 -6 -8 -16 -5 -24 9 -24 152 -136 164 -128 7 4 9 3 6
-4 -8 -12 97 -90 175 -128 32 -16 61 -38 67 -51 9 -20 14 -22 30 -13 30 15 71
13 71 -5 0 -8 5 -15 10 -15 6 0 10 6 10 13 0 17 -29 56 -30 40 0 -16 -20 -17
-20 -2 0 12 -57 81 -63 77 -1 -2 -26 15 -54 37 -28 22 -65 48 -82 57 -30 17
-42 38 -20 38 5 0 8 -4 5 -9 -4 -5 3 -7 14 -4 23 6 104 -53 94 -69 -4 -7 -2
-8 4 -4 6 3 15 -2 21 -11 6 -10 11 -13 11 -8 0 19 -31 56 -69 79 -41 27 -101
43 -101 28 0 -5 -7 -13 -16 -16 -8 -3 -13 -2 -10 3 6 9 -134 104 -177 120 -16
6 -28 6 -35 -1z"/>
<path d="M6760 7093 c0 -5 11 -20 24 -32 14 -13 30 -36 37 -52 6 -16 14 -28
16 -25 2 2 -2 17 -11 34 -8 16 -12 33 -8 37 4 5 1 4 -7 0 -11 -6 -13 -4 -7 11
4 10 4 15 0 11 -4 -4 -16 0 -26 10 -10 9 -18 12 -18 6z"/>
<path d="M4342 6828 c-7 -25 -3 -49 15 -103 13 -38 26 -104 29 -145 8 -122 12
-136 40 -149 23 -10 32 -8 75 19 27 16 55 30 63 30 8 0 24 8 36 18 30 24 20
72 -22 107 -17 14 -41 47 -54 74 -26 52 -141 181 -161 181 -7 0 -16 -15 -21
-32z m248 -281 c0 -25 -5 -40 -15 -44 -23 -8 -26 -1 -32 62 l-4 57 25 -18 c19
-15 25 -28 26 -57z"/>
<path d="M6950 6798 c0 -7 5 -20 10 -28 7 -12 12 -12 21 -3 9 9 9 16 -1 28
-15 18 -30 20 -30 3z"/>
<path d="M9375 6380 c-3 -5 4 -14 17 -19 13 -5 79 -30 148 -57 85 -33 135 -58
158 -80 30 -30 32 -37 32 -97 0 -70 -24 -142 -71 -214 -25 -38 -26 -44 -13
-58 31 -31 84 -13 127 42 41 55 50 102 38 195 -21 155 -64 212 -204 268 -60
24 -90 30 -151 30 -41 0 -78 -4 -81 -10z"/>
<path d="M4317 6313 c-14 -13 -7 -101 8 -117 18 -17 45 -11 45 10 0 22 15 16
31 -12 30 -57 160 -156 274 -209 82 -38 367 -174 384 -184 8 -4 24 -19 34 -33
19 -25 19 -27 1 -57 -21 -36 2 -37 -253 15 -90 19 -175 41 -188 49 -26 18 -87
132 -115 220 -22 67 -42 95 -68 95 -38 0 -42 -22 -29 -152 13 -134 28 -175 81
-217 38 -31 146 -61 218 -61 30 0 105 -7 165 -15 61 -8 126 -15 146 -15 20 0
66 -9 103 -21 l66 -21 34 26 c45 34 52 67 26 121 -22 45 -53 64 -101 63 -14 0
-43 11 -65 26 -22 14 -55 29 -74 32 -46 10 -253 108 -360 172 -115 68 -304
219 -308 246 -7 37 -36 59 -55 39z"/>
<path d="M9228 6205 c-29 -10 -48 -22 -48 -30 0 -11 7 -14 23 -10 12 3 62 7
111 9 48 3 90 6 92 8 1 2 -1 10 -6 18 -12 20 -115 23 -172 5z"/>
<path d="M9210 6130 c-23 -14 -11 -18 85 -23 50 -3 100 -8 113 -12 33 -11 28
12 -8 30 -32 17 -165 21 -190 5z"/>
<path d="M9306 6071 c17 -17 137 -42 146 -31 4 5 5 8 2 6 -10 -8 -64 16 -58
25 3 5 -18 9 -47 9 -32 0 -49 -4 -43 -9z"/>
<path d="M9411 6065 c3 -2 16 -6 30 -8 13 -2 24 -8 25 -13 0 -5 6 -22 13 -38
15 -38 9 -54 -26 -62 -64 -15 -73 -28 -73 -108 0 -41 -3 -82 -7 -91 -8 -21
-98 -65 -134 -65 -52 0 -89 60 -89 146 0 120 -216 114 -264 -8 -21 -50 -13
-93 20 -114 13 -9 24 -20 24 -24 0 -23 -101 -30 -126 -9 -9 7 -12 22 -9 40 4
21 0 31 -14 39 -32 17 -64 12 -127 -20 -106 -53 -206 -159 -217 -230 -8 -47
31 -100 74 -100 41 -1 104 5 114 11 6 3 35 6 65 7 65 3 176 53 229 102 44 41
101 127 101 151 0 10 -13 34 -30 52 -36 42 -37 57 -7 85 26 24 58 28 104 12
26 -9 32 -20 47 -73 23 -81 47 -107 100 -107 45 0 132 37 156 65 10 12 17 49
20 108 l5 90 50 16 c52 17 62 32 51 77 -4 15 -11 22 -18 18 -7 -5 -8 -3 -4 5
12 19 -24 51 -57 51 -17 0 -28 -2 -26 -5z"/>
<path d="M4405 5516 c-13 -10 -13 -15 2 -46 32 -62 103 -81 103 -27 0 52 -69
100 -105 73z"/>
<path d="M8324 5380 c-99 -14 -176 -64 -154 -100 7 -11 23 -11 99 0 134 19
277 9 345 -24 30 -15 59 -33 65 -40 9 -11 21 -11 69 0 31 8 89 14 129 14 55 0
93 8 170 34 111 39 173 64 173 71 0 5 -58 -3 -180 -27 -104 -20 -139 -32 -152
-51 -4 -7 -30 -6 -80 3 -55 10 -82 21 -110 45 -75 63 -234 95 -374 75z"/>
<path d="M7199 7112 c0 -4 -3 -18 -5 -32 -4 -24 -4 -24 12 -5 12 16 15 17 10
3 -3 -12 -1 -15 10 -11 7 3 14 8 14 12 0 9 -40 42 -41 33z"/>
<path d="M8137 3183 c-8 -7 -289 -36 -392 -39 -71 -3 -166 -9 -210 -13 -80 -8
-80 -8 -21 -10 76 -1 172 -19 213 -39 29 -14 33 -14 60 3 39 27 243 36 243 11
0 -8 10 -20 21 -27 18 -9 30 -6 69 15 42 23 60 26 139 26 63 0 90 -3 86 -11
-8 -12 22 -49 39 -49 6 0 29 14 50 30 36 28 46 30 122 30 l82 0 5 -30 c9 -42
45 -49 105 -19 26 13 49 27 52 30 6 9 45 11 138 10 68 -1 72 -2 72 -24 0 -54
38 -60 128 -17 55 26 75 30 148 30 82 0 84 -1 72 -20 -10 -15 -10 -25 -2 -38
22 -34 79 -25 153 24 30 20 41 22 130 17 53 -3 97 -7 99 -8 2 -2 -2 -12 -9
-23 -16 -26 2 -52 37 -52 30 0 130 37 147 55 20 20 218 9 210 -12 -3 -7 2 -22
11 -32 20 -22 51 -17 129 19 48 21 50 22 348 11 281 -10 501 -12 434 -4 -175
21 -844 87 -1095 107 -480 40 -687 48 -1248 50 -310 0 -564 0 -565 -1z"/>
<path d="M12580 1919 c-19 -5 -138 -8 -265 -8 -126 1 -266 -3 -310 -10 -131
-18 -328 -30 -597 -36 -139 -3 -271 -10 -293 -15 -76 -17 -205 -30 -249 -24
-31 5 -54 2 -77 -10 -17 -9 -49 -16 -69 -16 -20 0 -39 -3 -43 -6 -7 -8 17 -34
31 -34 7 0 6 -10 0 -28 -25 -65 30 -127 97 -112 57 13 109 63 124 117 8 28 16
32 117 47 40 6 42 5 50 -26 12 -40 50 -64 88 -54 29 7 53 28 96 83 24 31 28
33 123 39 l98 7 -20 -34 c-26 -42 -27 -75 -3 -88 14 -7 25 -6 41 5 20 15 65
88 66 109 0 6 30 11 68 13 l67 3 0 -29 c0 -37 28 -63 55 -52 11 4 29 24 40 44
l20 37 84 -3 c80 -3 84 -4 88 -27 4 -25 29 -50 52 -51 7 0 29 16 48 35 35 35
35 35 92 26 31 -5 76 -16 101 -25 67 -22 170 -8 219 32 20 16 55 39 77 50 22
11 46 28 53 36 12 14 10 16 -10 15 -13 -1 -40 -5 -59 -10z"/>
<path d="M6427 1388 c2 -5 13 -6 24 -3 25 8 24 -3 -3 -26 -13 -10 -18 -18 -11
-19 6 0 14 6 16 13 4 9 8 8 16 -3 8 -11 10 -8 8 15 -2 25 -7 30 -29 30 -15 1
-24 -3 -21 -7z"/>
<path d="M5385 1064 c41 -21 45 -28 12 -20 -24 6 -27 5 -15 -7 10 -11 18 -12
36 -4 l22 10 -27 19 c-16 10 -35 18 -43 18 -8 0 -2 -7 15 -16z"/>
<path d="M5351 824 c-2 -49 10 -94 25 -94 8 0 19 -11 24 -24 5 -14 23 -38 40
-54 25 -24 30 -37 30 -76 0 -34 -4 -46 -15 -46 -9 0 -15 9 -15 25 0 30 -11 32
-33 7 -11 -12 -17 -36 -17 -65 0 -35 -4 -47 -15 -47 -9 0 -15 9 -15 25 0 30
-11 32 -33 7 -23 -25 -21 -34 8 -62 14 -13 25 -27 25 -31 0 -5 37 -45 82 -89
44 -44 78 -83 75 -86 -3 -3 -26 13 -50 37 -69 68 -100 90 -108 78 -8 -14 -44
4 -53 26 -4 11 -20 15 -56 15 l-50 0 0 -39 c0 -33 4 -40 24 -45 14 -3 32 -3
41 1 16 5 15 4 -1 -15 -10 -12 -24 -22 -31 -22 -7 0 -13 -4 -13 -10 0 -5 -5
-10 -11 -10 -6 0 -8 9 -4 21 6 18 5 20 -14 10 -12 -7 -28 -22 -36 -35 -14 -21
-14 -27 1 -60 10 -20 24 -36 31 -36 7 0 13 -5 13 -10 0 -11 10 -24 43 -61 9
-10 17 -28 17 -39 0 -19 7 -20 233 -20 168 0 236 3 245 12 9 9 15 9 24 0 17
-17 49 -15 64 6 15 19 19 92 5 92 -16 0 -23 40 -11 55 18 22 29 18 41 -12 10
-26 12 -27 19 -8 15 34 11 65 -6 65 -14 0 -15 2 -3 17 11 13 11 17 2 20 -19 7
-16 19 11 48 25 27 56 30 64 8 2 -8 -5 -13 -20 -13 -29 0 -55 -16 -44 -27 5
-4 11 -2 13 5 6 17 23 15 44 -4 19 -17 39 -11 39 12 0 19 64 19 80 -1 8 -9 29
-15 56 -15 39 0 43 -3 48 -28 2 -15 3 -2 2 28 -2 30 -9 56 -15 58 -6 2 -11 7
-11 12 0 20 -78 122 -152 198 -44 45 -82 82 -84 82 -3 0 -17 11 -32 25 -15 14
-31 25 -37 25 -5 0 -19 10 -30 23 -11 13 -45 40 -76 59 -47 30 -56 33 -52 17
5 -16 0 -19 -36 -19 -41 0 -56 15 -23 23 9 3 -7 5 -36 6 -42 1 -63 8 -98 31
-33 24 -44 27 -44 15 0 -11 -10 -15 -39 -15 -36 0 -40 3 -44 28 -4 26 -4 26
-6 -4z m147 -50 c12 -4 22 -13 22 -20 0 -18 -17 -18 -27 0 -4 7 -15 16 -23 19
-20 7 0 8 28 1z m282 -549 c0 -8 0 -18 1 -22 0 -4 -4 -9 -10 -11 -6 -2 -11 8
-11 22 0 14 5 26 10 26 6 0 10 -7 10 -15z m15 -145 c21 -23 12 -39 -13 -24
-19 12 -29 44 -14 44 5 0 17 -9 27 -20z"/>
<path d="M4817 483 c-13 -12 -7 -33 8 -33 8 0 15 9 15 20 0 20 -11 26 -23 13z"/>
<path d="M4483 381 c-3 -13 -10 -18 -20 -14 -12 5 -11 1 3 -15 10 -12 24 -22
31 -22 7 0 13 -9 13 -20 0 -11 7 -23 15 -26 16 -6 40 -43 33 -49 -6 -7 -63 46
-61 56 2 4 -4 6 -12 3 -9 -4 -23 4 -36 20 -18 22 -28 26 -75 26 -51 0 -54 -1
-54 -25 0 -22 -4 -25 -40 -25 -22 0 -40 5 -40 10 0 6 -22 10 -49 10 -28 0 -53
-4 -56 -10 -3 -5 1 -10 9 -10 9 0 16 -7 16 -15 0 -11 -11 -15 -39 -15 -22 0
-41 -5 -43 -11 -7 -20 -45 7 -56 38 -9 26 -13 28 -55 25 -25 -2 -48 -9 -50
-16 -3 -8 6 -10 30 -8 l34 4 -2 -58 c-3 -67 14 -104 48 -104 30 0 53 -10 53
-23 0 -7 -4 -7 -12 1 -7 7 -19 12 -27 12 -11 0 -7 -7 12 -24 15 -13 27 -28 27
-35 0 -6 6 -11 13 -11 8 0 24 -11 37 -25 l23 -25 434 0 433 0 0 25 c0 14 5 25
10 25 6 0 10 -11 10 -25 l0 -25 100 0 100 0 0 25 c0 18 -5 25 -20 25 -11 0
-20 7 -20 15 0 8 -5 15 -10 15 -6 0 -26 16 -44 35 -19 19 -39 35 -45 35 -6 0
-15 9 -21 20 -6 11 -17 20 -25 20 -9 0 -15 9 -15 23 0 26 -57 54 -74 37 -6 -6
-27 -10 -48 -10 -43 0 -52 -21 -18 -42 25 -16 26 -37 3 -54 -22 -17 -41 -18
-25 -2 7 7 12 21 12 31 0 17 -2 17 -21 -4 l-20 -24 6 23 c6 22 5 23 -16 17
-21 -7 -22 -6 -11 7 10 13 10 17 -4 22 -22 9 -26 8 -18 -6 4 -6 3 -8 -4 -5 -5
4 -8 17 -6 30 2 12 2 16 -2 10 -3 -7 -10 -13 -16 -13 -18 0 -40 30 -34 46 4
12 2 15 -9 10 -9 -3 -15 0 -15 9 0 8 -9 15 -20 15 -11 0 -23 7 -26 15 -4 8
-12 15 -20 15 -8 0 -14 7 -14 15 0 9 -9 15 -25 15 -16 0 -25 6 -25 15 0 11
-12 15 -51 15 -42 0 -52 -3 -56 -19z m477 -275 c0 -16 -22 -13 -48 7 -9 8 -9
12 5 22 13 10 19 10 30 -1 7 -7 13 -20 13 -28z"/>
<path d="M6973 358 c1 -7 -5 -13 -14 -12 -35 3 -8 -41 77 -127 133 -135 183
-176 196 -158 8 11 9 11 5 -2 -9 -28 34 -59 81 -59 23 0 43 5 44 10 0 6 1 13
2 18 1 4 -23 29 -52 56 -44 41 -55 47 -64 35 -8 -12 -9 -11 -5 3 6 17 -25 49
-138 143 -33 27 -73 62 -90 77 -33 30 -46 35 -42 16z m188 -160 c11 -11 19
-21 19 -22 0 -1 -12 -2 -27 -3 -18 -1 -22 2 -12 7 7 5 10 12 6 16 -10 10 -38
-17 -30 -30 4 -6 -2 -4 -13 4 -29 22 -30 24 -11 17 11 -4 21 0 29 13 16 25 17
25 39 -2z"/>
<path d="M5090 264 c0 -14 7 -32 15 -40 13 -14 15 -11 15 25 0 30 -4 41 -15
41 -9 0 -15 -10 -15 -26z"/>
<path d="M9196 273 c-12 -12 -6 -43 9 -43 18 0 19 12 3 29 -9 9 -3 8 18 -2 17
-9 37 -23 44 -32 12 -15 11 -15 -13 -4 -22 10 -30 9 -44 -3 -10 -9 -24 -13
-30 -11 -7 3 -13 2 -13 -2 0 -16 37 -71 73 -107 20 -21 37 -43 37 -48 0 -6 4
-10 9 -10 5 0 13 -9 16 -20 6 -18 15 -20 95 -20 l88 0 -19 40 c-11 23 -26 43
-34 47 -8 3 -15 12 -15 19 0 8 -7 17 -15 20 -8 4 -13 10 -10 14 3 4 -2 11 -11
14 -9 3 -12 11 -8 18 4 7 4 10 -1 6 -4 -4 -15 1 -24 11 -16 18 -100 71 -133
83 -9 4 -19 4 -22 1z"/>
<path d="M2147 230 c-52 -33 -62 -36 -51 -18 4 7 3 8 -5 4 -6 -4 -9 -11 -6
-16 6 -10 -63 -72 -74 -65 -5 2 -15 -3 -22 -12 -10 -12 -10 -14 -1 -9 15 9 16
-6 0 -22 -15 -15 -31 -16 -22 0 4 7 3 8 -4 4 -6 -4 -8 -14 -5 -23 5 -13 2 -15
-11 -10 -9 4 -15 3 -12 -2 3 -5 -4 -20 -15 -35 l-20 -26 89 0 90 0 32 40 c17
22 37 37 42 34 7 -4 8 -2 4 5 -5 7 3 23 19 39 33 32 85 107 85 120 0 11 -24
22 -49 22 -9 0 -38 -13 -64 -30z"/>
<path d="M3805 220 c-3 -5 3 -10 14 -10 12 0 21 -7 21 -15 0 -8 7 -15 15 -15
21 0 19 -12 -5 -33 -26 -22 -90 -23 -90 -2 0 11 -11 15 -39 15 -35 0 -39 -3
-44 -30 -4 -16 -4 -38 -1 -47 5 -15 4 -15 -5 -3 -12 18 -24 9 -15 -14 3 -9 14
-16 23 -16 10 0 23 -11 29 -25 l12 -25 195 0 c188 0 195 1 186 19 -6 10 -21
25 -35 34 -14 9 -35 27 -49 41 -13 13 -34 29 -48 36 -13 7 -30 21 -37 32 -7
10 -22 18 -33 18 -10 0 -19 6 -19 13 0 6 -12 18 -27 25 -33 15 -40 15 -48 2z"/>
<path d="M3576 154 c-9 -22 -8 -24 9 -24 8 0 15 -4 15 -9 0 -13 32 -23 39 -13
3 5 13 12 21 16 8 3 4 4 -8 2 -33 -6 -52 3 -52 25 0 23 -16 25 -24 3z"/>
<path d="M7946 78 c18 -29 38 -47 47 -41 5 3 -3 16 -18 29 -31 27 -40 30 -29
12z"/>
<path d="M3166 33 c-11 -29 -5 -33 47 -33 l52 0 -25 19 c-33 26 -68 32 -74 14z"/>
</g>
</svg>
